<?xml version="1.0" standalone="no"?>
<!DOCTYPE svg PUBLIC "-//W3C//DTD SVG 20010904//EN"
 "http://www.w3.org/TR/2001/REC-SVG-20010904/DTD/svg10.dtd">
<svg version="1.0" xmlns="http://www.w3.org/2000/svg"
 width="128.000000pt" height="128.000000pt" viewBox="0 0 128.000000 128.000000"
 preserveAspectRatio="xMidYMid meet">
<metadata>
Created by potrace 1.11, written by Peter Selinger 2001-2013
</metadata>
<g transform="translate(0.000000,128.000000) scale(0.100000,-0.100000)"
fill="#000000" stroke="none">
<path d="M475 1256 c-44 -12 -109 -37 -145 -56 -74 -40 -204 -164 -235 -225
-11 -22 -23 -42 -26 -45 -4 -3 -19 -41 -34 -85 -45 -132 -41 -337 10 -435 9
-17 13 -30 11 -30 -6 0 45 -89 66 -117 7 -10 44 -47 81 -85 69 -68 202 -147
257 -153 14 -1 34 -6 45 -11 11 -5 74 -9 140 -8 98 0 131 4 180 22 33 13 65
24 70 25 39 9 139 80 199 141 120 122 182 270 184 437 2 178 -61 331 -186 457
-42 42 -100 88 -127 102 -28 14 -52 28 -55 32 -4 5 -89 33 -140 45 -8 3 -60 6
-115 8 -81 3 -116 -1 -180 -19z"/>
</g>
</svg>
